<svg width="23" height="23" viewBox="0 0 23 23" fill="none" xmlns="http://www.w3.org/2000/svg">
<path d="M0 9.10849C0 14.1389 4.10106 18.2106 9.16715 18.2106C14.2258 18.2106 18.3331 14.1389 18.3331 9.10849C18.3331 4.07806 14.2258 0 9.16715 0C4.10106 0 0 4.07806 0 9.10849ZM2.90485 9.10849C2.90485 5.66994 5.70445 2.88759 9.16772 2.88759C12.6241 2.88759 15.4294 5.67052 15.4294 9.10849C15.4294 12.547 12.6241 15.33 9.16772 15.33C5.70445 15.33 2.90485 12.5465 2.90485 9.10849ZM15.621 17.4607L19.5633 21.9517C20.1982 22.5855 20.6077 22.5906 21.2529 21.9517L22.5187 20.6974C23.141 20.0757 23.1795 19.6749 22.5187 19.0175L17.9777 15.1212L15.621 17.4607Z" fill="#A4A3A3"/>
</svg>
