<svg width="21" height="21" viewBox="0 0 21 21" fill="none" xmlns="http://www.w3.org/2000/svg">
<path d="M18.0737 4.81975V10.5001H2.92614" stroke="#BEBEBE" stroke-width="2" stroke-linecap="round" stroke-linejoin="round"/>
<path d="M10.4999 4.81975V10.5001V16.1804" stroke="#BEBEBE" stroke-width="2" stroke-linecap="round" stroke-linejoin="round"/>
<path d="M2.92614 4.81975V10.5001V16.1804" stroke="#BEBEBE" stroke-width="2" stroke-linecap="round" stroke-linejoin="round"/>
<path d="M19.9671 2.92622C19.9671 3.97192 19.1194 4.81966 18.0737 4.81966C17.028 4.81966 16.1803 3.97192 16.1803 2.92622C16.1803 1.88051 17.028 1.03278 18.0737 1.03278C19.1194 1.03278 19.9671 1.88051 19.9671 2.92622Z" stroke="#BEBEBE" stroke-width="2" stroke-linecap="round" stroke-linejoin="round"/>
<path d="M12.3933 2.92622C12.3933 3.97192 11.5456 4.81966 10.4999 4.81966C9.4542 4.81966 8.60646 3.97192 8.60646 2.92622C8.60646 1.88051 9.4542 1.03278 10.4999 1.03278C11.5456 1.03278 12.3933 1.88051 12.3933 2.92622Z" stroke="#BEBEBE" stroke-width="2" stroke-linecap="round" stroke-linejoin="round"/>
<path d="M4.81966 2.92622C4.81966 3.97192 3.97192 4.81966 2.92622 4.81966C1.88051 4.81966 1.03278 3.97192 1.03278 2.92622C1.03278 1.88051 1.88051 1.03278 2.92622 1.03278C3.97192 1.03278 4.81966 1.88051 4.81966 2.92622Z" stroke="#BEBEBE" stroke-width="2" stroke-linecap="round" stroke-linejoin="round"/>
<path d="M12.3933 18.0738C12.3933 19.1195 11.5456 19.9673 10.4999 19.9673C9.4542 19.9673 8.60646 19.1195 8.60646 18.0738C8.60646 17.0281 9.4542 16.1804 10.4999 16.1804C11.5456 16.1804 12.3933 17.0281 12.3933 18.0738Z" stroke="#BEBEBE" stroke-width="2" stroke-linecap="round" stroke-linejoin="round"/>
<path d="M4.81966 18.0738C4.81966 19.1195 3.97192 19.9673 2.92622 19.9673C1.88051 19.9673 1.03278 19.1195 1.03278 18.0738C1.03278 17.0281 1.88051 16.1804 2.92622 16.1804C3.97192 16.1804 4.81966 17.0281 4.81966 18.0738Z" stroke="#BEBEBE" stroke-width="2" stroke-linecap="round" stroke-linejoin="round"/>
<path d="M18.0737 19.9673C19.1194 19.9673 19.9671 19.1195 19.9671 18.0738C19.9671 17.0281 19.1194 16.1804 18.0737 16.1804C17.028 16.1804 16.1803 17.0281 16.1803 18.0738C16.1803 19.1195 17.028 19.9673 18.0737 19.9673Z" stroke="#BEBEBE" stroke-width="2" stroke-linecap="round" stroke-linejoin="round"/>
</svg>
