<svg width="18" height="21" viewBox="0 0 18 21" fill="none" xmlns="http://www.w3.org/2000/svg">
<path d="M14.6719 0L13.7344 1.07812L15.5156 2.71875C15.5699 2.77307 15.644 2.84579 15.7031 2.90625L15.3281 3.32812C14.7278 3.92845 15.1585 4.7054 15.375 4.92188L16.5 6.04688V15C16.5 16.5 15.9118 16.5 15.75 16.5C15.5882 16.5 15 16.5 15 15V9C15 7.07864 13.5 6 12 6V3C12 2.17304 11.3629 1.5 10.5 1.5H1.5C0.601135 1.5 0 2.13709 0 3V21H12V7.5C12 7.5 13.5 7.5 13.5 9V15C13.5 18 15.3595 18 15.75 18C16.1635 18 18 18 18 15V4.5C18 3 17.571 2.68618 17.0625 2.20312L14.6719 0ZM1.5 4.5H10.5V9H1.5V4.5Z" fill="#BEBEBE"/>
</svg>
