<svg width="14" height="27" viewBox="0 0 14 27" fill="none" xmlns="http://www.w3.org/2000/svg">
<path d="M0.991895 20.525L0.572595 20.4456C0.518952 20.4355 0.466978 20.4179 0.418146 20.3935C0.125984 20.2474 0.00755679 19.8922 0.153638 19.6L0.310138 19.287C0.428712 19.0498 0.671127 18.9 0.936267 18.9H1.82878L2.51682 16.8359C2.80266 15.9784 3.60517 15.4 4.50907 15.4H9.49093C10.3948 15.4 11.1973 15.9784 11.4832 16.8359L12.1712 18.9H13.0484C13.3086 18.9 13.5474 19.0444 13.6683 19.2748L13.8388 19.6C13.9889 19.8862 13.8787 20.2398 13.5925 20.3899C13.5412 20.4168 13.4862 20.436 13.4293 20.4467L13.009 20.5261L13.3364 20.9125C13.7648 21.4182 14 22.0596 14 22.7225V25.2C14 25.9732 13.3732 26.6 12.6 26.6H10.5C9.7268 26.6 9.1 25.9732 9.1 25.2H4.9C4.9 25.9732 4.2732 26.6 3.5 26.6H1.4C0.626802 26.6 0 25.9732 0 25.2V22.7225C0 22.0596 0.235165 21.4182 0.663641 20.9125L0.991895 20.525ZM2.42441 21L1.7318 21.8175C1.51756 22.0703 1.4 22.391 1.4 22.7225V25.2H3.5V24.5C3.5 24.1134 3.8134 23.8 4.2 23.8H9.8C10.1866 23.8 10.5 24.1134 10.5 24.5V25.2H12.6V22.7225C12.6 22.391 12.4824 22.0703 12.2682 21.8175L11.5756 21H2.42441ZM4.56641 3.57648C5.07246 3.21611 5.66184 2.96513 6.3 2.85806V0.7C6.3 0.3134 6.6134 0 7 0C7.3866 0 7.7 0.3134 7.7 0.7V2.85806C8.33816 2.96513 8.92754 3.21611 9.43359 3.57648L10.9598 2.05025C11.2332 1.77688 11.6764 1.77688 11.9497 2.05025C12.2231 2.32361 12.2231 2.76683 11.9497 3.0402L10.4235 4.56643C10.7839 5.07248 11.0349 5.66184 11.1419 6.3H13.3C13.6866 6.3 14 6.6134 14 7C14 7.3866 13.6866 7.7 13.3 7.7H11.1419C11.0349 8.33816 10.7839 8.92752 10.4235 9.43357L11.9497 10.9598C12.2231 11.2332 12.2231 11.6764 11.9497 11.9498C11.6764 12.2231 11.2332 12.2231 10.9598 11.9498L9.43359 10.4235C8.92754 10.7839 8.33816 11.0349 7.7 11.1419V13.3C7.7 13.6866 7.3866 14 7 14C6.6134 14 6.3 13.6866 6.3 13.3V11.1419C5.66184 11.0349 5.07246 10.7839 4.56641 10.4235L3.0402 11.9498C2.76683 12.2231 2.32364 12.2231 2.05027 11.9498C1.7769 11.6764 1.7769 11.2332 2.05027 10.9598L3.57648 9.43357C3.21611 8.92752 2.96513 8.33816 2.85806 7.7H0.7C0.3134 7.7 0 7.3866 0 7C0 6.6134 0.3134 6.3 0.7 6.3H2.85806C2.96513 5.66184 3.21611 5.07248 3.57648 4.56643L2.05027 3.0402C1.7769 2.76683 1.7769 2.32361 2.05027 2.05025C2.32364 1.77688 2.76683 1.77688 3.0402 2.05025L4.56641 3.57648ZM7 9.8C8.5464 9.8 9.8 8.5464 9.8 7C9.8 5.4536 8.5464 4.2 7 4.2C5.4536 4.2 4.2 5.4536 4.2 7C4.2 8.5464 5.4536 9.8 7 9.8ZM10.155 17.2786C10.0597 16.9928 9.79223 16.8 9.49093 16.8H4.50907C4.20777 16.8 3.94028 16.9928 3.845 17.2786L3.07122 19.6H10.9288L10.155 17.2786Z" fill="#BEBEBE"/>
</svg>
