<svg width="33" height="33" viewBox="0 0 33 33" fill="none" xmlns="http://www.w3.org/2000/svg">
<path d="M0.689331 0.689453H32.3143V32.3144H0.689331V0.689453Z" fill="white"/>
<path d="M0.689331 0.689453H32.3143V6.14178H0.689331V0.689453Z" fill="#6C757D"/>
<path d="M4.82897 3.41345C4.82897 3.54833 4.78897 3.68019 4.71403 3.79234C4.63909 3.9045 4.53257 3.99191 4.40796 4.04353C4.28334 4.09515 4.14621 4.10865 4.01391 4.08234C3.88162 4.05602 3.7601 3.99107 3.66472 3.89569C3.56934 3.80031 3.50439 3.67879 3.47807 3.5465C3.45176 3.4142 3.46526 3.27707 3.51688 3.15245C3.5685 3.02784 3.65591 2.92132 3.76807 2.84638C3.88022 2.77144 4.01208 2.73145 4.14697 2.73145C4.32784 2.73145 4.50131 2.8033 4.62921 2.9312C4.75711 3.0591 4.82897 3.23257 4.82897 3.41345Z" fill="#6C757D"/>
<path d="M7.55699 3.41345C7.55699 3.54833 7.51699 3.68019 7.44206 3.79234C7.36712 3.9045 7.2606 3.99191 7.13598 4.04353C7.01136 4.09515 6.87424 4.10865 6.74194 4.08234C6.60965 4.05602 6.48813 3.99107 6.39275 3.89569C6.29737 3.80031 6.23241 3.67879 6.2061 3.5465C6.17978 3.4142 6.19329 3.27707 6.24491 3.15245C6.29653 3.02784 6.38394 2.92132 6.49609 2.84638C6.60825 2.77144 6.74011 2.73145 6.87499 2.73145C7.05587 2.73145 7.22934 2.8033 7.35724 2.9312C7.48514 3.0591 7.55699 3.23257 7.55699 3.41345Z" fill="#6C757D"/>
<path d="M10.2666 3.41345C10.2666 3.54833 10.2266 3.68019 10.1517 3.79234C10.0768 3.9045 9.97026 3.99191 9.84564 4.04353C9.72102 4.09515 9.58389 4.10865 9.4516 4.08234C9.3193 4.05602 9.19778 3.99107 9.1024 3.89569C9.00702 3.80031 8.94207 3.67879 8.91575 3.5465C8.88944 3.4142 8.90294 3.27707 8.95456 3.15245C9.00618 3.02784 9.0936 2.92132 9.20575 2.84638C9.3179 2.77144 9.44976 2.73145 9.58465 2.73145C9.76553 2.73145 9.939 2.8033 10.0669 2.9312C10.1948 3.0591 10.2666 3.23257 10.2666 3.41345Z" fill="#6C757D"/>
<path d="M14.7804 25.0952H23.7197V28.5345H14.7804V25.0952Z" fill="#6C757D"/>
<path d="M6.69168 28.8713C7.82975 28.8713 8.75234 27.9487 8.75234 26.8107C8.75234 25.6726 7.82975 24.75 6.69168 24.75C5.5536 24.75 4.63101 25.6726 4.63101 26.8107C4.63101 27.9487 5.5536 28.8713 6.69168 28.8713Z" fill="#6C757D"/>
<path d="M32.3143 33H0.689343C0.598992 33.0005 0.509436 32.9831 0.425824 32.9489C0.342211 32.9146 0.26619 32.8642 0.202131 32.8005C0.138073 32.7367 0.0872386 32.661 0.0525516 32.5776C0.0178646 32.4941 8.56573e-06 32.4047 9.85763e-06 32.3143V0.689343C-0.000476268 0.598682 0.017022 0.508826 0.051492 0.424972C0.0859621 0.341119 0.136719 0.264935 0.200827 0.200827C0.264935 0.136719 0.341119 0.0859621 0.424972 0.051492C0.508826 0.017022 0.598682 -0.000476268 0.689343 9.85763e-06H32.3143C32.4047 8.56573e-06 32.4941 0.0178646 32.5776 0.0525516C32.661 0.0872386 32.7367 0.138073 32.8005 0.202131C32.8642 0.26619 32.9146 0.342211 32.9489 0.425824C32.9831 0.509436 33.0005 0.598992 33 0.689343V32.3143C33 32.4962 32.9278 32.6706 32.7992 32.7992C32.6706 32.9278 32.4962 33 32.3143 33ZM1.37501 31.625H31.625V1.37501H1.37501V31.625Z" fill="#6C757D"/>
<path d="M31.768 6.828H1.23205C1.05839 6.81531 0.89596 6.73737 0.777407 6.60984C0.658853 6.4823 0.592957 6.31463 0.592957 6.14051C0.592957 5.96638 0.658853 5.79871 0.777407 5.67117C0.89596 5.54364 1.05839 5.4657 1.23205 5.45301H31.768C31.8625 5.4461 31.9574 5.45875 32.0468 5.49017C32.1362 5.52159 32.2182 5.57111 32.2876 5.63562C32.357 5.70014 32.4124 5.77827 32.4502 5.86514C32.4881 5.95201 32.5076 6.04575 32.5076 6.14051C32.5076 6.23526 32.4881 6.329 32.4502 6.41587C32.4124 6.50274 32.357 6.58087 32.2876 6.64539C32.2182 6.7099 32.1362 6.75942 32.0468 6.79084C31.9574 6.82226 31.8625 6.83491 31.768 6.828Z" fill="#6C757D"/>
<path d="M13.0497 2.64355H30.3013V4.01855H13.0497V2.64355Z" fill="#6C757D"/>
<path d="M4.63101 10.4824H24.2V11.8574H4.63101V10.4824Z" fill="#6C757D"/>
<path d="M4.63101 13.6909H24.2V15.0659H4.63101V13.6909Z" fill="#6C757D"/>
<path d="M4.63101 16.8999H24.2V18.2749H4.63101V16.8999Z" fill="#6C757D"/>
<path d="M4.63101 20.1079H24.2V21.4829H4.63101V20.1079Z" fill="#6C757D"/>
<path d="M27.6833 12.5469H29.0583V21.7135H27.6833V12.5469Z" fill="#6C757D"/>
<path d="M28.3689 14.8385C28.1871 14.8385 28.0127 14.7662 27.8841 14.6376C27.7555 14.5091 27.6833 14.3347 27.6833 14.1528V11.1718C27.6959 10.9981 27.7739 10.8357 27.9014 10.7172C28.029 10.5986 28.1966 10.5327 28.3708 10.5327C28.5449 10.5327 28.7126 10.5986 28.8401 10.7172C28.9676 10.8357 29.0456 10.9981 29.0583 11.1718V14.1491C29.0587 14.2398 29.0412 14.3297 29.0068 14.4135C28.9723 14.4974 28.9215 14.5735 28.8574 14.6377C28.7933 14.7018 28.7171 14.7525 28.6333 14.787C28.5494 14.8215 28.4596 14.839 28.3689 14.8385Z" fill="#6C757D"/>
<path d="M23.7196 29.2199H14.7803C14.6903 29.2199 14.6011 29.2021 14.5179 29.1677C14.4347 29.1332 14.3591 29.0827 14.2955 29.019C14.2318 28.9554 14.1813 28.8798 14.1468 28.7966C14.1124 28.7134 14.0946 28.6242 14.0946 28.5342V25.0949C14.0946 25.0045 14.1125 24.915 14.1472 24.8316C14.1819 24.7482 14.2327 24.6724 14.2968 24.6087C14.3608 24.545 14.4368 24.4946 14.5204 24.4603C14.6041 24.4261 14.6936 24.4087 14.784 24.4092H23.7196C23.8103 24.4087 23.9001 24.4262 23.984 24.4607C24.0679 24.4951 24.144 24.5459 24.2081 24.61C24.2723 24.6741 24.323 24.7503 24.3575 24.8342C24.392 24.918 24.4094 25.0079 24.409 25.0985V28.5379C24.4085 28.6279 24.3903 28.717 24.3554 28.8C24.3205 28.883 24.2696 28.9583 24.2055 29.0216C24.1415 29.085 24.0657 29.1351 23.9823 29.1691C23.8989 29.2031 23.8097 29.2203 23.7196 29.2199ZM15.4696 27.8449H23.0303V25.7805H15.4696V27.8449Z" fill="#6C757D"/>
<path d="M6.60003 28.5999L5.02337 27.0233C4.89209 26.8934 4.81775 26.7168 4.81672 26.5322C4.81569 26.3475 4.88805 26.17 5.01787 26.0388C5.14769 25.9075 5.32435 25.8332 5.50898 25.8321C5.69361 25.8311 5.87109 25.9034 6.00237 26.0333L6.60003 26.6456L8.30137 24.9333C8.43265 24.8039 8.60993 24.732 8.79422 24.7334C8.9785 24.7348 9.1547 24.8093 9.28403 24.9406C9.41337 25.0719 9.48526 25.2492 9.48388 25.4335C9.48251 25.6177 9.40798 25.7939 9.2767 25.9233L6.60003 28.5999Z" fill="#6C757D"/>
</svg>
