<svg width="28" height="35" viewBox="0 0 28 35" fill="none" xmlns="http://www.w3.org/2000/svg">
<path d="M14 15.5556C15.5383 15.5556 17.0421 15.0994 18.3211 14.2448C19.6002 13.3901 20.597 12.1754 21.1857 10.7542C21.7744 9.33301 21.9284 7.76915 21.6283 6.26041C21.3282 4.75167 20.5875 3.3658 19.4997 2.27806C18.412 1.19032 17.0261 0.449559 15.5174 0.149451C14.0086 -0.150656 12.4448 0.00336999 11.0236 0.592052C9.60237 1.18073 8.38765 2.17763 7.53301 3.45668C6.67838 4.73573 6.22222 6.23948 6.22222 7.77778C6.22469 9.83982 7.04493 11.8167 8.50301 13.2748C9.96109 14.7329 11.938 15.5531 14 15.5556ZM14 3.11111C14.923 3.11111 15.8252 3.38481 16.5927 3.89759C17.3601 4.41037 17.9582 5.1392 18.3114 5.99193C18.6646 6.84465 18.7571 7.78296 18.577 8.6882C18.3969 9.59345 17.9525 10.425 17.2998 11.0776C16.6472 11.7303 15.8157 12.1747 14.9104 12.3548C14.0052 12.5348 13.0669 12.4424 12.2141 12.0892C11.3614 11.736 10.6326 11.1379 10.1198 10.3704C9.60703 9.60301 9.33333 8.70076 9.33333 7.77778C9.33333 6.5401 9.825 5.35312 10.7002 4.47795C11.5753 3.60278 12.7623 3.11111 14 3.11111ZM1.55556 34.2222H26.4444C26.857 34.2222 27.2527 34.0583 27.5444 33.7666C27.8361 33.4749 28 33.0792 28 32.6667V26.4444C27.9975 24.3824 27.1773 22.4055 25.7192 20.9475C24.2611 19.4894 22.2843 18.6691 20.2222 18.6667H7.77778C5.71574 18.6691 3.73887 19.4894 2.28079 20.9475C0.822705 22.4055 0.00247 24.3824 0 26.4444V32.6667C0 33.0792 0.163888 33.4749 0.455612 33.7666C0.747335 34.0583 1.143 34.2222 1.55556 34.2222ZM3.11111 26.4444C3.11111 25.2068 3.60278 24.0198 4.47795 23.1446C5.35312 22.2694 6.5401 21.7778 7.77778 21.7778H20.2222C21.4599 21.7778 22.6469 22.2694 23.5221 23.1446C24.3972 24.0198 24.8889 25.2068 24.8889 26.4444V31.1111H3.11111V26.4444Z" fill="#6C757D"/>
</svg>
