<svg width="24" height="4" viewBox="0 0 24 4" fill="none" xmlns="http://www.w3.org/2000/svg">
<path d="M23.9981 1.98377C23.9981 2.51015 23.789 3.01498 23.4168 3.38719C23.0446 3.75939 22.5397 3.9685 22.0133 3.9685H2.04657C1.78085 3.97678 1.51618 3.9316 1.26826 3.83563C1.02035 3.73967 0.794234 3.59487 0.603349 3.40984C0.412464 3.22481 0.260695 3.00332 0.157051 2.75852C0.0534069 2.51371 0 2.25057 0 1.98473C0 1.71889 0.0534069 1.45575 0.157051 1.21095C0.260695 0.96614 0.412464 0.744649 0.603349 0.55962C0.794234 0.374592 1.02035 0.229798 1.26826 0.133832C1.51618 0.0378649 1.78085 -0.00731886 2.04657 0.000963507H22.0172C22.5432 0.00147424 23.0476 0.210805 23.4194 0.582959C23.7912 0.955113 24 1.45964 24 1.98569L23.9981 1.98377Z" fill="black"/>
</svg>
