<svg width="22" height="22" viewBox="0 0 22 22" fill="none" xmlns="http://www.w3.org/2000/svg">
<path d="M19.3617 22C19.2192 22 19.1039 21.8847 19.1039 21.7422C19.1039 21.3039 18.9199 21.0991 18.6864 20.8398C18.4286 20.5534 18.1357 20.2283 18.1357 19.5916C18.1357 18.955 18.4279 18.6305 18.6864 18.3441C18.9199 18.0856 19.1039 17.8807 19.1039 17.4417C19.1039 17.0042 18.9199 16.8001 18.6864 16.5408C18.4286 16.2551 18.1357 15.93 18.1357 15.2947C18.1357 14.6595 18.4286 14.3344 18.6864 14.0486C18.9199 13.7901 19.1039 13.586 19.1039 13.1484C19.1039 13.0059 19.2192 12.8906 19.3617 12.8906C19.5042 12.8906 19.6195 13.0059 19.6195 13.1484C19.6195 13.7844 19.3273 14.1081 19.0688 14.3938C18.8354 14.6523 18.6513 14.8564 18.6513 15.2947C18.6513 15.733 18.8354 15.9364 19.0688 16.1956C19.3266 16.4814 19.6195 16.8065 19.6195 17.4417C19.6195 18.0784 19.3273 18.4028 19.0688 18.6893C18.8354 18.9478 18.6513 19.1526 18.6513 19.5916C18.6513 20.0306 18.8354 20.2354 19.0688 20.4947C19.3266 20.7811 19.6195 21.1063 19.6195 21.7422C19.6195 21.8847 19.5042 22 19.3617 22ZM14.3487 22C14.2062 22 14.0909 21.8847 14.0909 21.7422C14.0909 21.3039 13.9068 21.0991 13.6734 20.8398C13.4156 20.5534 13.1227 20.2283 13.1227 19.5916C13.1227 18.955 13.4148 18.6305 13.6734 18.3441C13.9068 18.0856 14.0909 17.8807 14.0909 17.4417C14.0909 17.0042 13.9068 16.8001 13.6734 16.5408C13.4156 16.2551 13.1227 15.93 13.1227 15.2947C13.1227 14.6595 13.4156 14.3344 13.6734 14.0486C13.9068 13.7901 14.0909 13.586 14.0909 13.1484C14.0909 13.0059 14.2062 12.8906 14.3487 12.8906C14.4912 12.8906 14.6065 13.0059 14.6065 13.1484C14.6065 13.7844 14.3143 14.1081 14.0558 14.3938C13.8223 14.6523 13.6383 14.8564 13.6383 15.2947C13.6383 15.733 13.8223 15.9364 14.0558 16.1956C14.3136 16.4814 14.6065 16.8065 14.6065 17.4417C14.6065 18.0784 14.3143 18.4028 14.0558 18.6893C13.8223 18.9478 13.6383 19.1526 13.6383 19.5916C13.6383 20.0306 13.8223 20.2354 14.0558 20.4947C14.3136 20.7811 14.6065 21.1063 14.6065 21.7422C14.6065 21.8847 14.4912 22 14.3487 22ZM9.33568 22C9.19317 22 9.07787 21.8847 9.07787 21.7422C9.07787 21.3039 8.89382 21.0991 8.66035 20.8398C8.40254 20.5534 8.11035 20.2283 8.11035 19.5916C8.11035 18.955 8.40254 18.6305 8.66035 18.3441C8.89382 18.0856 9.07787 17.8807 9.07787 17.4417C9.07787 17.0042 8.89382 16.8001 8.66035 16.5408C8.40254 16.2551 8.11035 15.93 8.11035 15.2947C8.11035 14.6595 8.40254 14.3344 8.66107 14.0486C8.89453 13.7901 9.07858 13.586 9.07858 13.1484C9.07858 13.0059 9.19388 12.8906 9.3364 12.8906C9.47891 12.8906 9.59421 13.0059 9.59421 13.1484C9.59421 13.7844 9.30202 14.1081 9.04421 14.3938C8.81074 14.6523 8.62669 14.8564 8.62669 15.2947C8.62669 15.733 8.81074 15.9364 9.04421 16.1956C9.30202 16.4814 9.59421 16.8065 9.59421 17.4417C9.59421 18.0784 9.30202 18.4028 9.04421 18.6893C8.81074 18.9478 8.62669 19.1526 8.62669 19.5916C8.62669 20.0306 8.81146 20.2354 9.04421 20.4947C9.30202 20.7811 9.59421 21.1063 9.59421 21.7422C9.59349 21.8847 9.47819 22 9.33568 22ZM4.32266 22C4.18014 22 4.06484 21.8847 4.06484 21.7422C4.06484 21.3039 3.8808 21.0991 3.64733 20.8398C3.38952 20.5534 3.09733 20.2283 3.09733 19.5916C3.09733 18.955 3.38952 18.6305 3.64733 18.3441C3.8808 18.0856 4.06484 17.8807 4.06484 17.4417C4.06484 17.0042 3.8808 16.8001 3.64733 16.5408C3.38952 16.2551 3.09733 15.93 3.09733 15.2947C3.09733 14.6595 3.38952 14.3344 3.64805 14.0486C3.8808 13.7901 4.06484 13.5853 4.06484 13.1484C4.06484 13.0059 4.18014 12.8906 4.32266 12.8906C4.46517 12.8906 4.58047 13.0059 4.58047 13.1484C4.58047 13.7844 4.28828 14.1081 4.03047 14.3938C3.79701 14.6523 3.61296 14.8564 3.61296 15.2947C3.61296 15.733 3.79701 15.9364 4.03047 16.1956C4.28828 16.4814 4.58047 16.8065 4.58047 17.4417C4.58047 18.0784 4.28828 18.4028 4.03047 18.6893C3.79701 18.9478 3.61296 19.1526 3.61296 19.5916C3.61296 20.0306 3.79772 20.2354 4.03047 20.4947C4.28828 20.7811 4.58047 21.1063 4.58047 21.7422C4.58047 21.8847 4.46517 22 4.32266 22ZM20.3099 11.974H1.6901C0.758399 11.974 0 11.2156 0 10.2839V0.257813C0 0.1153 0.1153 0 0.257813 0H21.7422C21.8847 0 22 0.1153 22 0.257813V10.2839C22 11.2156 21.2423 11.974 20.3099 11.974ZM0.515625 0.515625V10.2839C0.515625 10.9313 1.04271 11.4583 1.6901 11.4583H20.3099C20.9573 11.4583 21.4844 10.9313 21.4844 10.2839V0.515625H0.515625ZM19.5938 9.82552H2.40625C2.26374 9.82552 2.14844 9.71022 2.14844 9.56771C2.14844 9.4252 2.26374 9.3099 2.40625 9.3099H19.5938C19.7363 9.3099 19.8516 9.4252 19.8516 9.56771C19.8516 9.71022 19.7363 9.82552 19.5938 9.82552ZM19.5938 7.67708H2.40625C2.26374 7.67708 2.14844 7.56179 2.14844 7.41927C2.14844 7.27676 2.26374 7.16146 2.40625 7.16146H19.5938C19.7363 7.16146 19.8516 7.27676 19.8516 7.41927C19.8516 7.56179 19.7363 7.67708 19.5938 7.67708ZM19.5938 5.52865H2.40625C2.26374 5.52865 2.14844 5.41335 2.14844 5.27083C2.14844 5.12832 2.26374 5.01302 2.40625 5.01302H19.5938C19.7363 5.01302 19.8516 5.12832 19.8516 5.27083C19.8516 5.41335 19.7363 5.52865 19.5938 5.52865ZM19.5938 3.38021H16.7292C16.5867 3.38021 16.4714 3.26491 16.4714 3.1224C16.4714 2.97988 16.5867 2.86458 16.7292 2.86458H19.5938C19.7363 2.86458 19.8516 2.97988 19.8516 3.1224C19.8516 3.26491 19.7363 3.38021 19.5938 3.38021Z" fill="black"/>
</svg>
