<svg width="33" height="36" viewBox="0 0 33 36" fill="none" xmlns="http://www.w3.org/2000/svg">
<path d="M4.24786 17.6873V14.029C4.24786 10.7796 5.53871 7.6632 7.83642 5.36548C10.1341 3.06777 13.2505 1.77692 16.5 1.77692C19.7494 1.77692 22.8658 3.06777 25.1635 5.36548C27.4612 7.6632 28.7521 10.7796 28.7521 14.029V17.6873" stroke="#6C757D" stroke-width="3.5" stroke-linecap="round"/>
<path d="M3.70235 17.6874H6.71884V26.2748H3.70235C3.19169 26.2748 2.70195 26.072 2.34087 25.7109C1.97978 25.3498 1.77692 24.86 1.77692 24.3494V19.6128C1.77692 19.1022 1.97978 18.6125 2.34087 18.2514C2.70195 17.8903 3.19169 17.6874 3.70235 17.6874V17.6874Z" stroke="#6C757D" stroke-width="3.5" stroke-linecap="round"/>
<path d="M29.2977 26.2746H26.2812V17.6872H29.2977C29.8083 17.6872 30.298 17.89 30.6591 18.2511C31.0202 18.6122 31.2231 19.1019 31.2231 19.6126V24.3491C31.2231 24.8598 31.0202 25.3495 30.6591 25.7106C30.298 26.0717 29.8083 26.2746 29.2977 26.2746V26.2746Z" stroke="#6C757D" stroke-width="3.5" stroke-linecap="round"/>
<path d="M29.1436 26.518V29.727C29.1436 30.4079 28.8731 31.0609 28.3917 31.5423C27.9102 32.0238 27.2572 32.2943 26.5764 32.2943H19.4266" stroke="#6C757D" stroke-width="3.5" stroke-linecap="round"/>
<path d="M18.1366 30.6009H15.5052C14.7963 30.6009 14.2216 31.1756 14.2216 31.8845V32.5712C14.2216 33.2801 14.7963 33.8548 15.5052 33.8548H18.1366C18.8456 33.8548 19.4203 33.2801 19.4203 32.5712V31.8845C19.4203 31.1756 18.8456 30.6009 18.1366 30.6009Z" stroke="#6C757D" stroke-width="3.5" stroke-linecap="round"/>
</svg>
