<svg width="26" height="28" viewBox="0 0 26 28" fill="none" xmlns="http://www.w3.org/2000/svg">
<path d="M13.9388 24.1146C13.3802 24.5491 12.5888 24.5491 12.0301 24.1146L2.48672 16.6971C1.92808 16.2626 1.15219 16.2626 0.593554 16.6971C-0.197851 17.3178 -0.197851 18.5127 0.593554 19.1334L11.0836 27.2957C12.2008 28.1647 13.7681 28.1647 14.9009 27.2957L25.3909 19.1334C26.1823 18.5127 26.1823 17.3178 25.3909 16.6971L25.3754 16.6816C24.8168 16.2471 24.0409 16.2471 23.4822 16.6816L13.9388 24.1146ZM14.9164 19.4282L25.4064 11.2659C26.1978 10.6452 26.1978 9.43479 25.4064 8.81408L14.9164 0.651746C13.7992 -0.217249 12.2319 -0.217249 11.0991 0.651746L0.609072 8.8296C-0.182333 9.45031 -0.182333 10.6607 0.609072 11.2814L11.0991 19.4437C12.2164 20.3127 13.7992 20.3127 14.9164 19.4282Z" fill="black"/>
</svg>
