<svg width="32" height="33" viewBox="0 0 32 33" fill="none" xmlns="http://www.w3.org/2000/svg">
<path d="M29.3854 17.363C29.1243 17.0658 28.9804 16.6837 28.9804 16.2881C28.9804 15.8925 29.1243 15.5105 29.3854 15.2133L31.47 12.8681C31.6997 12.6119 31.8424 12.2895 31.8775 11.9471C31.9126 11.6048 31.8384 11.2602 31.6655 10.9626L28.4083 5.32771C28.2371 5.03053 27.9765 4.79496 27.6636 4.65459C27.3507 4.51422 27.0015 4.47622 26.6657 4.54599L23.6039 5.16486C23.2143 5.24535 22.8088 5.18047 22.4637 4.98245C22.1187 4.78443 21.8581 4.46698 21.7311 4.08998L20.7376 1.10966C20.6284 0.786185 20.4202 0.50523 20.1426 0.306504C19.8649 0.107779 19.5319 0.00133349 19.1904 0.00221482H12.6761C12.3209 -0.0163219 11.9695 0.081896 11.6754 0.281867C11.3813 0.481838 11.1608 0.77257 11.0475 1.10966L10.1355 4.08998C10.0084 4.46698 9.74782 4.78443 9.40279 4.98245C9.05775 5.18047 8.65217 5.24535 8.26259 5.16486L5.1194 4.54599C4.8011 4.50101 4.4766 4.55124 4.18678 4.69035C3.89697 4.82946 3.65481 5.05123 3.49081 5.32771L0.233623 10.9626C0.0563673 11.2569 -0.0233328 11.5996 0.00591757 11.9418C0.0351679 12.284 0.171871 12.6082 0.396482 12.8681L2.4648 15.2133C2.72589 15.5105 2.86988 15.8925 2.86988 16.2881C2.86988 16.6837 2.72589 17.0658 2.4648 17.363L0.396482 19.7082C0.171871 19.968 0.0351679 20.2923 0.00591757 20.6345C-0.0233328 20.9767 0.0563673 21.3194 0.233623 21.6136L3.49081 27.2486C3.66197 27.5458 3.92258 27.7813 4.23549 27.9217C4.54839 28.0621 4.89763 28.1001 5.2334 28.0303L8.29516 27.4114C8.68475 27.3309 9.09033 27.3958 9.43536 27.5938C9.78039 27.7919 10.041 28.1093 10.168 28.4863L11.1615 31.4666C11.2748 31.8037 11.4953 32.0945 11.7894 32.2944C12.0835 32.4944 12.4349 32.5926 12.7901 32.5741H19.3044C19.6459 32.575 19.9789 32.4685 20.2566 32.2698C20.5342 32.0711 20.7424 31.7901 20.8516 31.4666L21.8451 28.4863C21.9721 28.1093 22.2327 27.7919 22.5777 27.5938C22.9228 27.3958 23.3283 27.3309 23.7179 27.4114L26.7797 28.0303C27.1155 28.1001 27.4647 28.0621 27.7776 27.9217C28.0905 27.7813 28.3511 27.5458 28.5223 27.2486L31.7795 21.6136C31.9524 21.3161 32.0266 20.9715 31.9915 20.6291C31.9564 20.2868 31.8137 19.9644 31.584 19.7082L29.3854 17.363ZM26.9588 19.5453L28.2617 21.0111L26.1771 24.6265L24.2554 24.2357C23.0824 23.9959 21.8623 24.1952 20.8265 24.7956C19.7908 25.396 19.0115 26.3558 18.6367 27.4929L18.0179 29.3169H13.8487L13.2624 27.4603C12.8876 26.3233 12.1083 25.3635 11.0726 24.763C10.0368 24.1626 8.81667 23.9633 7.64372 24.2031L5.72198 24.594L3.60481 20.9948L4.90769 19.529C5.70888 18.6333 6.15182 17.4736 6.15182 16.2719C6.15182 15.0701 5.70888 13.9104 4.90769 13.0147L3.60481 11.5489L5.68941 7.96603L7.61115 8.3569C8.7841 8.59666 10.0043 8.39742 11.04 7.79698C12.0757 7.19655 12.855 6.23673 13.2298 5.09971L13.8487 3.2594H18.0179L18.6367 5.116C19.0115 6.25301 19.7908 7.21284 20.8265 7.81327C21.8623 8.4137 23.0824 8.61295 24.2554 8.37318L26.1771 7.98232L28.2617 11.5978L26.9588 13.0635C26.1666 13.9572 25.7292 15.1102 25.7292 16.3044C25.7292 17.4987 26.1666 18.6516 26.9588 19.5453ZM15.9333 9.77377C14.6448 9.77377 13.3854 10.1558 12.3141 10.8716C11.2428 11.5875 10.4078 12.6049 9.91477 13.7952C9.42171 14.9855 9.2927 16.2954 9.54406 17.559C9.79542 18.8227 10.4159 19.9835 11.3269 20.8945C12.238 21.8056 13.3987 22.426 14.6624 22.6773C15.926 22.9287 17.2359 22.7997 18.4262 22.3066C19.6165 21.8136 20.634 20.9786 21.3498 19.9073C22.0656 18.8361 22.4476 17.5766 22.4476 16.2881C22.4476 14.5604 21.7613 12.9035 20.5396 11.6818C19.3179 10.4601 17.661 9.77377 15.9333 9.77377ZM15.9333 19.5453C15.2891 19.5453 14.6593 19.3543 14.1237 18.9964C13.588 18.6385 13.1705 18.1298 12.924 17.5346C12.6775 16.9394 12.613 16.2845 12.7387 15.6527C12.8643 15.0209 13.1746 14.4405 13.6301 13.985C14.0856 13.5294 14.666 13.2192 15.2978 13.0935C15.9296 12.9679 16.5846 13.0324 17.1797 13.2789C17.7749 13.5254 18.2836 13.9429 18.6415 14.4785C18.9994 15.0142 19.1904 15.6439 19.1904 16.2881C19.1904 17.152 18.8473 17.9805 18.2364 18.5913C17.6256 19.2022 16.7971 19.5453 15.9333 19.5453Z" fill="#6C757D"/>
</svg>
