<svg width="20" height="20" viewBox="0 0 20 20" fill="none" xmlns="http://www.w3.org/2000/svg">
<path d="M19.6486 10.8485L15.4492 15.0485C15.3378 15.1601 15.2055 15.2486 15.0599 15.309C14.9143 15.3694 14.7582 15.4005 14.6006 15.4006C14.443 15.4007 14.2869 15.3696 14.1412 15.3093C13.9956 15.249 13.8632 15.1606 13.7518 15.0491C13.6403 14.9376 13.5519 14.8053 13.4916 14.6596C13.4313 14.514 13.4003 14.3578 13.4003 14.2002C13.4004 14.0425 13.4315 13.8864 13.4919 13.7408C13.5523 13.5952 13.6408 13.4629 13.7524 13.3515L15.9035 11.2H7.59888C7.28066 11.2 6.97548 11.0736 6.75047 10.8485C6.52546 10.6235 6.39905 10.3183 6.39905 10C6.39905 9.68174 6.52546 9.37652 6.75047 9.15147C6.97548 8.92643 7.28066 8.8 7.59888 8.8H15.9035L13.7524 6.64854C13.6408 6.53713 13.5523 6.40484 13.4919 6.25921C13.4315 6.11359 13.4004 5.95748 13.4003 5.79983C13.4003 5.64217 13.4313 5.48604 13.4916 5.34038C13.5519 5.19471 13.6403 5.06235 13.7518 4.95087C13.8632 4.83939 13.9956 4.75097 14.1412 4.69066C14.2869 4.63035 14.443 4.59934 14.6006 4.5994C14.7582 4.59945 14.9143 4.63057 15.0599 4.69098C15.2055 4.75139 15.3378 4.83991 15.4492 4.95147L19.6486 9.15147C19.76 9.26289 19.8484 9.39518 19.9087 9.54077C19.969 9.68637 20 9.84241 20 10C20 10.1576 19.969 10.3136 19.9087 10.4592C19.8484 10.6048 19.76 10.7371 19.6486 10.8485ZM9.19864 17.6H2.39965V2.4H9.19864C9.51685 2.4 9.82203 2.27357 10.047 2.04853C10.2721 1.82348 10.3985 1.51826 10.3985 1.2C10.3985 0.88174 10.2721 0.576516 10.047 0.351472C9.82203 0.126428 9.51685 0 9.19864 0H1.9997C1.46953 0.00058998 0.961241 0.211493 0.586351 0.586438C0.211462 0.961383 0.000589893 1.46975 0 2V18C0.000589893 18.5303 0.211462 19.0386 0.586351 19.4136C0.961241 19.7885 1.46953 19.9994 1.9997 20H9.19864C9.51685 20 9.82203 19.8736 10.047 19.6485C10.2721 19.4235 10.3985 19.1183 10.3985 18.8C10.3985 18.4817 10.2721 18.1765 10.047 17.9515C9.82203 17.7264 9.51685 17.6 9.19864 17.6Z" fill="#6C757D"/>
</svg>
