<svg width="17" height="19" viewBox="0 0 17 19" fill="none" xmlns="http://www.w3.org/2000/svg">
<path d="M16.8785 12.6774V1.0589C16.8777 0.900252 16.8413 0.743803 16.7718 0.601176C16.7023 0.458549 16.6016 0.333407 16.4771 0.235044C16.3544 0.135781 16.211 0.0652796 16.0575 0.0287228C15.9039 -0.00783393 15.7441 -0.00951676 15.5899 0.0237979L6.0838 2.13626C5.84912 2.18918 5.63955 2.32062 5.48974 2.50885C5.33993 2.69707 5.25886 2.9308 5.25994 3.17136V11.9803C4.53888 11.6399 3.72689 11.5425 2.94578 11.7027C2.16466 11.8628 1.45654 12.272 0.927644 12.8687C0.398747 13.4654 0.0775928 14.2175 0.01236 15.0122C-0.0528728 15.8069 0.141333 16.6013 0.565843 17.2763C0.990354 17.9512 1.62228 18.4704 2.36682 18.7558C3.11136 19.0412 3.92837 19.0775 4.69528 18.8592C5.4622 18.6409 6.13766 18.1799 6.62035 17.5452C7.10303 16.9105 7.36691 16.1365 7.3724 15.3391C7.38332 15.1562 7.38332 14.9728 7.3724 14.7899V4.01635L14.766 2.37919V9.86786C14.0445 9.52725 13.2321 9.4299 12.4505 9.59042C11.669 9.75095 10.9607 10.1607 10.4319 10.7581C9.90316 11.3555 9.58248 12.1084 9.51805 12.9036C9.45362 13.6988 9.64893 14.4935 10.0746 15.1682C10.5004 15.843 11.1335 16.3614 11.879 16.6456C12.6244 16.9299 13.442 16.9646 14.2089 16.7446C14.9758 16.5245 15.6505 16.0616 16.1319 15.4254C16.6133 14.7892 16.8753 14.0139 16.8785 13.2161C16.8885 13.0367 16.8885 12.8568 16.8785 12.6774Z" fill="#BEBEBE"/>
</svg>
